<svg width="83" height="43" viewBox="0 0 83 43" fill="none" xmlns="http://www.w3.org/2000/svg">
<path d="M42.9122 13.3719H42.8189V8.88864H38.1492V33.3603H42.8189V20.9384C42.8189 15.661 46.0412 12.9058 50.6651 12.9058C51.7877 12.8938 52.9057 13.0512 53.9814 13.3727V8.32923C53.1127 8.10545 52.2157 8.01096 51.3194 8.04876C48.1904 8.04794 45.108 9.49546 42.9122 13.3719Z" fill="white"/>
<path d="M0.835938 33.3602H6.15995L8.17261 28.7599L13.7968 15.7075H8.82197L0.835938 33.3602Z" fill="white"/>
<path d="M21.5718 0.0152588H16.5013L18.5353 4.59504C18.5353 4.56642 18.5353 4.57868 18.5426 4.61221L21.7321 11.9726L24.9314 19.351L31.0038 33.3611H36.6541L21.5718 0.0152588Z" fill="white"/>
<path d="M77.6736 8.88448H82.3409V42.7676H77.6736V29.9336H77.5804C75.7599 32.8777 71.8867 34.1814 68.2932 34.1814C60.9655 34.1814 54.9913 29.4674 54.9913 21.2532C54.9913 13.039 60.9614 8.32507 68.2932 8.32507C71.8867 8.32507 75.7607 9.7252 77.5804 12.2923H77.6736V8.88448ZM68.8992 30.2599C74.3132 30.2599 77.9533 26.8528 77.9533 21.2524C77.9533 16.5851 75.2463 12.2449 68.8992 12.2449C62.602 12.2449 59.9383 16.5859 59.9383 21.2524C59.9383 26.9003 63.4394 30.2607 68.9 30.2607L68.8992 30.2599Z" fill="white"/>
</svg>
