<svg width="32" height="32" viewBox="0 0 32 32" fill="none" xmlns="http://www.w3.org/2000/svg">
<g clip-path="url(#clip0_691_158)">
<path d="M24.5518 8.55469L20.7812 4.78267C20.281 4.28303 19.6028 4.00248 18.8958 4.00269H9.33317C8.62593 4.00269 7.94769 4.28364 7.44759 4.78373C6.94749 5.28383 6.6665 5.96211 6.6665 6.66935V25.336C6.6665 26.0433 6.94749 26.7215 7.44759 27.2216C7.94769 27.7217 8.62593 28.0027 9.33317 28.0027H22.6665C23.3737 28.0027 24.0521 27.7217 24.5522 27.2216C25.0523 26.7215 25.3332 26.0433 25.3332 25.336V10.4373C25.3323 9.73108 25.0513 9.05401 24.5518 8.55469Z" fill="white" stroke="#323232" stroke-width="1.5" stroke-linecap="round" stroke-linejoin="round"/>
<path d="M25.3332 10.6667H19.9998C19.6462 10.6667 19.3071 10.5262 19.057 10.2762C18.807 10.0261 18.6665 9.68695 18.6665 9.33333V4" fill="white"/>
<path d="M25.3332 10.6667H19.9998C19.6462 10.6667 19.3071 10.5262 19.057 10.2762C18.807 10.0261 18.6665 9.68695 18.6665 9.33333V4" stroke="#323232" stroke-width="1.5" stroke-linecap="round" stroke-linejoin="round"/>
<path d="M11.5879 20.1547C11.2432 20.1684 10.8996 20.1079 10.5803 19.9772C10.261 19.8466 9.97349 19.6488 9.73727 19.3974C9.25246 18.8472 9.00091 18.1298 9.03594 17.3974C9.00667 16.6656 9.26785 15.952 9.76258 15.4121C9.99666 15.1598 10.2819 14.9605 10.5992 14.8273C10.9165 14.6942 11.2586 14.6303 11.6026 14.64C11.9874 14.6279 12.3689 14.7146 12.7106 14.892C13.0119 15.0591 13.1626 15.2534 13.1626 15.4747C13.1641 15.6148 13.1105 15.7498 13.0132 15.8507C12.9689 15.9011 12.9144 15.9415 12.8532 15.9691C12.7921 15.9967 12.7257 16.0108 12.6586 16.0107C12.5006 15.9943 12.345 15.9603 12.1945 15.9094C12.0051 15.8486 11.8081 15.8145 11.6093 15.808C11.4301 15.8019 11.2519 15.8385 11.0896 15.9148C10.9274 15.9911 10.7856 16.1048 10.6759 16.2467C10.4279 16.5885 10.3045 17.005 10.3265 17.4267C10.3042 17.8406 10.431 18.2489 10.6839 18.5774C10.8009 18.7171 10.9485 18.8281 11.1151 18.9019C11.2818 18.9756 11.4631 19.0101 11.6452 19.0027C11.8638 18.9955 12.0795 18.9504 12.2826 18.8694C12.4336 18.8037 12.5928 18.7589 12.7559 18.736C12.8191 18.7374 12.8812 18.7524 12.938 18.7801C12.9949 18.8077 13.0451 18.8472 13.0853 18.896C13.1793 18.9922 13.232 19.1215 13.2319 19.256C13.2194 19.3956 13.1683 19.5289 13.0845 19.6412C13.0007 19.7535 12.8874 19.8403 12.7572 19.892C12.3964 20.0785 11.9938 20.169 11.5879 20.1547Z" fill="#323232"/>
<path d="M14.8309 19.0173L14.6536 19.5507C14.6103 19.701 14.5306 19.8384 14.4216 19.9507C14.3767 19.9942 14.3237 20.0283 14.2656 20.0512C14.2074 20.0741 14.1453 20.0853 14.0829 20.084C14.0086 20.0857 13.9349 20.0721 13.8661 20.0441C13.7973 20.0161 13.7349 19.9743 13.6829 19.9214C13.6303 19.867 13.5892 19.8026 13.562 19.7321C13.5347 19.6616 13.5218 19.5863 13.5242 19.5107C13.5235 19.4486 13.5284 19.3866 13.5389 19.3254C13.547 19.2714 13.5612 19.2186 13.5816 19.168L14.9389 15.484C15.0094 15.2609 15.1356 15.0595 15.3055 14.8987C15.4582 14.7735 15.6509 14.7077 15.8483 14.7134C16.0412 14.7087 16.2298 14.7714 16.3815 14.8907C16.5426 15.0262 16.6627 15.204 16.7282 15.404L18.0482 19.1507C18.0735 19.2294 18.0949 19.2987 18.1082 19.3613C18.1195 19.4153 18.1258 19.4702 18.1269 19.5254C18.1288 19.5999 18.1151 19.674 18.0866 19.7429C18.0581 19.8118 18.0155 19.8739 17.9615 19.9253C17.8469 20.0303 17.6956 20.0859 17.5402 20.08C17.3993 20.0848 17.2621 20.0335 17.1589 19.9373C17.0422 19.815 16.9587 19.665 16.9162 19.5014L16.7709 19.016L14.8309 19.0173ZM15.1682 17.9227H16.4149L15.8136 15.9894L15.1682 17.9227Z" fill="#323232"/>
<path d="M20.3359 14.7854C20.6313 14.7818 20.9261 14.8122 21.2145 14.876C21.4533 14.929 21.6814 15.0218 21.8892 15.1507C22.2375 15.375 22.5182 15.6898 22.7012 16.0614C22.8991 16.4578 23.0001 16.8956 22.9959 17.3387C23.0346 18.0513 22.7896 18.7502 22.3146 19.2827C22.0714 19.5269 21.7795 19.7171 21.4578 19.8407C21.1361 19.9643 20.792 20.0186 20.4479 20H19.3639C19.1406 20.0243 18.916 19.968 18.7306 19.8414C18.6638 19.7594 18.6142 19.665 18.5847 19.5635C18.5551 19.462 18.5462 19.3557 18.5585 19.2507V15.6214C18.5319 15.3877 18.5975 15.1529 18.7412 14.9667C18.9228 14.8274 19.1509 14.763 19.3785 14.7867L20.3359 14.7854ZM19.7492 18.9H20.2892C20.4847 18.9157 20.6812 18.8888 20.8653 18.8214C21.0494 18.754 21.2168 18.6475 21.3559 18.5094C21.6156 18.1743 21.7415 17.7547 21.7092 17.3321C21.7374 17.1365 21.7196 16.937 21.6572 16.7495C21.5947 16.562 21.4894 16.3916 21.3496 16.252C21.2098 16.1123 21.0394 16.0072 20.8518 15.9449C20.6643 15.8827 20.4648 15.865 20.2692 15.8934H19.7506L19.7492 18.9Z" fill="#323232"/>
</g>
<defs>
<clipPath id="clip0_691_158">
<rect width="32" height="32" fill="white"/>
</clipPath>
</defs>
</svg>
