<svg width="32" height="32" viewBox="0 0 32 32" fill="none" xmlns="http://www.w3.org/2000/svg">
<g clip-path="url(#clip0_691_210)">
<path d="M24.5518 8.55469L20.7812 4.78267C20.281 4.28303 19.6028 4.00248 18.8958 4.00269H9.33317C8.62593 4.00269 7.94769 4.28364 7.44759 4.78373C6.94749 5.28383 6.6665 5.96211 6.6665 6.66935V25.336C6.6665 26.0433 6.94749 26.7215 7.44759 27.2216C7.94769 27.7217 8.62593 28.0027 9.33317 28.0027H22.6665C23.3737 28.0027 24.0521 27.7217 24.5522 27.2216C25.0523 26.7215 25.3332 26.0433 25.3332 25.336V10.4373C25.3323 9.73108 25.0513 9.05401 24.5518 8.55469Z" fill="white" stroke="#323232" stroke-width="1.5" stroke-linecap="round" stroke-linejoin="round"/>
<path d="M25.3332 10.6667H19.9998C19.6462 10.6667 19.3071 10.5262 19.057 10.2762C18.807 10.0261 18.6665 9.68695 18.6665 9.33333V4" fill="white"/>
<path d="M25.3332 10.6667H19.9998C19.6462 10.6667 19.3071 10.5262 19.057 10.2762C18.807 10.0261 18.6665 9.68695 18.6665 9.33333V4" stroke="#323232" stroke-width="1.5" stroke-linecap="round" stroke-linejoin="round"/>
<path d="M10.6974 14.7854C10.9928 14.7818 11.2876 14.8122 11.576 14.8761C11.8146 14.9295 12.0427 15.0223 12.2508 15.1507C12.5991 15.3745 12.8794 15.6895 13.0614 16.0614C13.2605 16.4575 13.362 16.8954 13.3574 17.3387C13.3956 18.0515 13.1502 18.7504 12.6747 19.2827C12.4317 19.5271 12.1398 19.7173 11.8181 19.8409C11.4964 19.9646 11.1522 20.0188 10.808 20H9.72138C9.49853 20.0242 9.27439 19.9679 9.08938 19.8414C9.02263 19.7595 8.97301 19.665 8.94346 19.5635C8.91392 19.4621 8.90509 19.3557 8.91742 19.2507V15.6214C8.89083 15.3877 8.95631 15.1529 9.10004 14.9667C9.2811 14.8274 9.50879 14.7629 9.73603 14.7867L10.6974 14.7854ZM10.1094 18.9001H10.6507C10.8462 18.9155 11.0426 18.8886 11.2267 18.8212C11.4108 18.7537 11.5782 18.6474 11.7174 18.5094C11.976 18.1739 12.1014 17.7545 12.0694 17.3321C12.0978 17.1364 12.0803 16.9368 12.0179 16.7492C11.9556 16.5616 11.8503 16.3911 11.7104 16.2513C11.5705 16.1116 11.3999 16.0065 11.2123 15.9443C11.0246 15.8822 10.825 15.8648 10.6294 15.8934H10.1107L10.1094 18.9001Z" fill="#323232"/>
<path d="M13.5856 17.396C13.5514 16.6627 13.805 15.9451 14.2922 15.396C14.7863 14.9079 15.453 14.6342 16.1476 14.6342C16.8422 14.6342 17.5087 14.9079 18.0029 15.396C18.4618 15.96 18.7123 16.6649 18.7123 17.392C18.7123 18.1191 18.4618 18.8241 18.0029 19.3881C17.5068 19.875 16.8394 20.1478 16.1442 20.1478C15.4491 20.1478 14.7817 19.875 14.2856 19.3881C13.8031 18.8398 13.5521 18.1256 13.5856 17.396ZM14.8789 17.4107C14.8575 17.8284 14.9794 18.2409 15.2242 18.58C15.3357 18.7167 15.4761 18.8268 15.6353 18.9024C15.7945 18.978 15.9686 19.0173 16.1449 19.0173C16.3212 19.0173 16.4953 18.978 16.6545 18.9024C16.8137 18.8268 16.9541 18.7167 17.0655 18.58C17.3118 18.2415 17.4346 17.8288 17.4135 17.4107C17.4365 16.9835 17.3153 16.5609 17.0695 16.2107C16.9585 16.0725 16.8178 15.9609 16.6579 15.8843C16.498 15.8076 16.3229 15.7678 16.1455 15.7678C15.9682 15.7678 15.7932 15.8076 15.6333 15.8843C15.4733 15.9609 15.3326 16.0725 15.2216 16.2107C14.9761 16.5611 14.8554 16.9836 14.8789 17.4107Z" fill="#323232"/>
<path d="M21.4976 20.1547C21.1528 20.169 20.809 20.1087 20.4896 19.978C20.1702 19.8473 19.8828 19.6493 19.6469 19.3974C19.1611 18.8477 18.9089 18.1301 18.9442 17.3974C18.9156 16.6658 19.1768 15.9524 19.6709 15.4121C19.9051 15.16 20.1903 14.9607 20.5076 14.8276C20.8249 14.6945 21.1669 14.6305 21.5108 14.6401C21.8956 14.6277 22.2773 14.7145 22.6189 14.8921C22.9211 15.0592 23.0722 15.2534 23.0722 15.4747C23.0737 15.6148 23.0201 15.7499 22.9228 15.8507C22.8786 15.9011 22.824 15.9415 22.7629 15.9691C22.7017 15.9967 22.6353 16.0109 22.5682 16.0107C22.4102 15.9944 22.2545 15.9605 22.1042 15.9094C21.9147 15.8487 21.7177 15.8146 21.5189 15.8081C21.3397 15.8019 21.1615 15.8385 20.9993 15.9148C20.837 15.9911 20.6952 16.1048 20.5855 16.2467C20.3375 16.5885 20.2142 17.005 20.2362 17.4267C20.2138 17.8407 20.3406 18.2489 20.5935 18.5774C20.7103 18.717 20.8576 18.828 21.024 18.9017C21.1904 18.9755 21.3716 19.01 21.5535 19.0027C21.7725 18.9956 21.9886 18.9505 22.1922 18.8694C22.3432 18.8037 22.5024 18.7589 22.6655 18.7361C22.7287 18.7377 22.7907 18.7528 22.8475 18.7804C22.9043 18.808 22.9546 18.8474 22.9949 18.896C23.0889 18.9923 23.1416 19.1215 23.1415 19.2561C23.1289 19.3958 23.0776 19.5292 22.9936 19.6415C22.9095 19.7538 22.796 19.8405 22.6655 19.8921C22.3053 20.0787 21.903 20.1691 21.4976 20.1547Z" fill="#323232"/>
</g>
<defs>
<clipPath id="clip0_691_210">
<rect width="32" height="32" fill="white"/>
</clipPath>
</defs>
</svg>
