<svg width="32" height="32" viewBox="0 0 32 32" fill="none" xmlns="http://www.w3.org/2000/svg">
<g clip-path="url(#clip0_691_171)">
<path d="M24.5518 8.55469L20.7812 4.78267C20.281 4.28303 19.6028 4.00248 18.8958 4.00269H9.33317C8.62593 4.00269 7.94769 4.28364 7.44759 4.78373C6.94749 5.28383 6.6665 5.96211 6.6665 6.66935V25.336C6.6665 26.0433 6.94749 26.7215 7.44759 27.2216C7.94769 27.7217 8.62593 28.0027 9.33317 28.0027H22.6665C23.3737 28.0027 24.0521 27.7217 24.5522 27.2216C25.0523 26.7215 25.3332 26.0433 25.3332 25.336V10.4373C25.3323 9.73108 25.0513 9.05401 24.5518 8.55469Z" fill="white" stroke="#323232" stroke-width="1.5" stroke-linecap="round" stroke-linejoin="round"/>
<path d="M25.3332 10.6667H19.9998C19.6462 10.6667 19.3071 10.5262 19.057 10.2762C18.807 10.0261 18.6665 9.68695 18.6665 9.33333V4" fill="white"/>
<path d="M25.3332 10.6667H19.9998C19.6462 10.6667 19.3071 10.5262 19.057 10.2762C18.807 10.0261 18.6665 9.68695 18.6665 9.33333V4" stroke="#323232" stroke-width="1.5" stroke-linecap="round" stroke-linejoin="round"/>
<path d="M10.984 19.2214C10.9999 19.4426 10.9482 19.6634 10.8359 19.8547C10.781 19.9198 10.7125 19.9721 10.6353 20.008C10.558 20.0439 10.4738 20.0625 10.3886 20.0625C10.3034 20.0625 10.2193 20.0439 10.142 20.008C10.0647 19.9721 9.99619 19.9198 9.94125 19.8547C9.83013 19.663 9.77906 19.4424 9.7946 19.2214V15.6213C9.76872 15.3877 9.83421 15.1531 9.9773 14.9667C10.1591 14.8277 10.387 14.7633 10.6146 14.7867H11.6813C12.1912 14.7588 12.6918 14.9305 13.0773 15.2653C13.2505 15.4319 13.3859 15.6336 13.4745 15.857C13.563 16.0803 13.6026 16.3201 13.5906 16.56C13.6041 16.7982 13.5684 17.0365 13.4856 17.2602C13.4028 17.4839 13.2747 17.6881 13.1093 17.86C12.9296 18.0233 12.7191 18.1489 12.4901 18.2295C12.2611 18.3101 12.0183 18.3441 11.776 18.3293H10.9759L10.984 19.2214ZM10.984 17.248H11.4946C11.7119 17.2644 11.9278 17.203 12.1039 17.0747C12.1744 17.0092 12.2293 16.9287 12.2647 16.8392C12.3 16.7496 12.3148 16.6533 12.3079 16.5573C12.316 16.4623 12.3022 16.3667 12.2678 16.2778C12.2334 16.1888 12.1792 16.1089 12.1093 16.044C11.9303 15.9181 11.7127 15.8591 11.4946 15.8774H10.984V17.248Z" fill="#323232"/>
<path d="M16.0146 14.7854C16.31 14.7816 16.6048 14.8121 16.8932 14.876C17.132 14.929 17.36 15.0218 17.5679 15.1507C17.9161 15.375 18.1968 15.6898 18.3799 16.0614C18.5786 16.4575 18.6796 16.8955 18.6746 17.3387C18.7135 18.0515 18.468 18.7507 17.9919 19.2827C17.7489 19.5272 17.4571 19.7175 17.1353 19.8411C16.8136 19.9647 16.4693 20.0189 16.1252 20H15.0412C14.8175 20.0245 14.5924 19.9682 14.4065 19.8414C14.3397 19.7594 14.2902 19.6649 14.2607 19.5635C14.2311 19.462 14.2222 19.3556 14.2345 19.2507V15.6213C14.2087 15.3877 14.2741 15.1531 14.4172 14.9667C14.599 14.8277 14.8269 14.7633 15.0545 14.7867L16.0146 14.7854ZM15.4279 18.9H15.9612C16.1566 18.9156 16.3532 18.8888 16.5373 18.8214C16.7214 18.7539 16.8887 18.6475 17.0278 18.5094C17.2876 18.1744 17.4132 17.7546 17.3799 17.332C17.4086 17.1365 17.3912 16.9369 17.329 16.7492C17.2669 16.5616 17.1617 16.3911 17.0219 16.2513C16.8821 16.1115 16.7117 16.0064 16.524 15.9442C16.3364 15.8821 16.1367 15.8647 15.9412 15.8934H15.4225L15.4279 18.9Z" fill="#323232"/>
<path d="M21.4972 14.7854C21.717 14.7693 21.9369 14.8155 22.1318 14.9187C22.2009 14.9638 22.2569 15.0265 22.2939 15.1003C22.3309 15.174 22.3476 15.2563 22.3425 15.3387C22.3474 15.4197 22.3308 15.5005 22.2943 15.5729C22.2577 15.6453 22.2025 15.7067 22.1344 15.7507C21.9385 15.8535 21.7179 15.8997 21.4972 15.884H20.5318V16.8174H21.3665C21.5863 16.8023 21.806 16.8485 22.0011 16.9507C22.0697 16.9954 22.1252 17.0574 22.162 17.1305C22.1987 17.2035 22.2155 17.2851 22.2105 17.3667C22.2157 17.4481 22.199 17.5293 22.1622 17.602C22.1254 17.6747 22.0698 17.7362 22.0011 17.7801C21.8062 17.8829 21.5863 17.9291 21.3665 17.9134H20.5318V19.2134C20.5477 19.4346 20.4961 19.6555 20.3838 19.8467C20.3288 19.9118 20.2604 19.9641 20.1831 20C20.1058 20.0359 20.0216 20.0546 19.9364 20.0546C19.8513 20.0546 19.7671 20.0359 19.6899 20C19.6126 19.9641 19.544 19.9118 19.4891 19.8467C19.378 19.655 19.3269 19.4344 19.3425 19.2134V15.6134C19.3166 15.3798 19.3821 15.1452 19.5252 14.9587C19.7069 14.8198 19.9348 14.7554 20.1624 14.7787L21.4972 14.7854Z" fill="#323232"/>
</g>
<defs>
<clipPath id="clip0_691_171">
<rect width="32" height="32" fill="white"/>
</clipPath>
</defs>
</svg>
