<svg width="32" height="32" viewBox="0 0 32 32" fill="none" xmlns="http://www.w3.org/2000/svg">
<g clip-path="url(#clip0_691_197)">
<path d="M24.5518 8.55469L20.7812 4.78267C20.281 4.28303 19.6028 4.00248 18.8958 4.00269H9.33317C8.62593 4.00269 7.94769 4.28364 7.44759 4.78373C6.94749 5.28383 6.6665 5.96211 6.6665 6.66935V25.336C6.6665 26.0433 6.94749 26.7215 7.44759 27.2216C7.94769 27.7217 8.62593 28.0027 9.33317 28.0027H22.6665C23.3737 28.0027 24.0521 27.7217 24.5522 27.2216C25.0523 26.7215 25.3332 26.0433 25.3332 25.336V10.4373C25.3323 9.73108 25.0513 9.05401 24.5518 8.55469Z" fill="white" stroke="#323232" stroke-width="1.5" stroke-linecap="round" stroke-linejoin="round"/>
<path d="M25.3332 10.6667H19.9998C19.6462 10.6667 19.3071 10.5262 19.057 10.2762C18.807 10.0261 18.6665 9.68695 18.6665 9.33333V4" fill="white"/>
<path d="M25.3332 10.6667H19.9998C19.6462 10.6667 19.3071 10.5262 19.057 10.2762C18.807 10.0261 18.6665 9.68695 18.6665 9.33333V4" stroke="#323232" stroke-width="1.5" stroke-linecap="round" stroke-linejoin="round"/>
<path d="M11.4893 19.2214C11.5045 19.4426 11.453 19.6632 11.3413 19.8547C11.2864 19.9199 11.2178 19.9722 11.1406 20.0081C11.0633 20.044 10.9792 20.0626 10.894 20.0626C10.8088 20.0626 10.7246 20.044 10.6473 20.0081C10.57 19.9722 10.5016 19.9199 10.4466 19.8547C10.3355 19.663 10.2844 19.4424 10.3 19.2214V15.6214C10.2741 15.3878 10.3395 15.1532 10.4826 14.9667C10.6643 14.8277 10.8923 14.7633 11.12 14.7867H12.1866C12.6965 14.7589 13.1971 14.9305 13.5826 15.2654C13.7558 15.4319 13.8912 15.6337 13.9797 15.857C14.0683 16.0804 14.1079 16.3201 14.096 16.5601C14.1095 16.7982 14.0737 17.0366 13.9909 17.2603C13.9081 17.484 13.78 17.6882 13.6146 17.8601C13.4349 18.0233 13.2244 18.149 12.9955 18.2296C12.7665 18.3102 12.5236 18.3441 12.2813 18.3294H11.4813L11.4893 19.2214ZM11.4893 17.2481H11.9999C12.2172 17.2642 12.4331 17.2028 12.6093 17.0747C12.6798 17.0092 12.7347 16.9287 12.77 16.8392C12.8053 16.7497 12.8201 16.6534 12.8133 16.5574C12.8214 16.4623 12.8076 16.3667 12.7732 16.2778C12.7388 16.1889 12.6845 16.1089 12.6146 16.0441C12.4356 15.9182 12.218 15.8592 11.9999 15.8774H11.4893V17.2481Z" fill="#323232"/>
<path d="M15.9331 19.2214C15.9483 19.4426 15.8968 19.6632 15.7852 19.8547C15.7302 19.9199 15.6617 19.9722 15.5844 20.0081C15.5071 20.044 15.423 20.0626 15.3378 20.0626C15.2526 20.0626 15.1684 20.044 15.0912 20.0081C15.0139 19.9722 14.9454 19.9199 14.8905 19.8547C14.7794 19.663 14.7283 19.4424 14.7438 19.2214V15.6214C14.7179 15.3878 14.7833 15.1532 14.9264 14.9667C15.1082 14.8277 15.3362 14.7633 15.5638 14.7867H16.6305C17.1403 14.7589 17.641 14.9305 18.0265 15.2654C18.1996 15.4319 18.335 15.6337 18.4236 15.857C18.5121 16.0804 18.5518 16.3201 18.5398 16.5601C18.5533 16.7982 18.5176 17.0366 18.4347 17.2603C18.3519 17.484 18.2238 17.6882 18.0584 17.8601C17.8788 18.0234 17.6683 18.1491 17.4393 18.2297C17.2103 18.3103 16.9674 18.3442 16.7251 18.3294H15.9251L15.9331 19.2214ZM15.9331 17.2481H16.4438C16.661 17.2642 16.877 17.2028 17.0531 17.0747C17.1236 17.0092 17.1786 16.9287 17.2139 16.8392C17.2492 16.7497 17.2639 16.6534 17.2571 16.5574C17.2651 16.4623 17.2515 16.3667 17.217 16.2778C17.1826 16.1889 17.1284 16.1089 17.0584 16.0441C16.8794 15.9182 16.6619 15.8592 16.4438 15.8774H15.9331V17.2481Z" fill="#323232"/>
<path d="M19.8611 15.888H19.4238C19.2031 15.9042 18.9823 15.858 18.7865 15.7547C18.7184 15.7106 18.6633 15.6492 18.6268 15.5768C18.5902 15.5044 18.5735 15.4237 18.5785 15.3427C18.5735 15.2605 18.5902 15.1784 18.6269 15.1047C18.6637 15.0309 18.7191 14.9682 18.7878 14.9227C18.983 14.8192 19.2035 14.773 19.4238 14.7894H21.4905C21.71 14.7736 21.9294 14.8198 22.1238 14.9227C22.1932 14.9676 22.2492 15.0302 22.2863 15.1041C22.3233 15.1779 22.34 15.2603 22.3345 15.3427C22.3395 15.4238 22.3227 15.5047 22.2859 15.5772C22.2491 15.6496 22.1936 15.7109 22.1251 15.7547C21.9302 15.8575 21.7104 15.9037 21.4905 15.888H21.0492V19.2214C21.0648 19.4424 21.0136 19.663 20.9025 19.8547C20.8474 19.9198 20.7789 19.9722 20.7015 20.0081C20.6241 20.044 20.5398 20.0626 20.4545 20.0626C20.3692 20.0626 20.285 20.044 20.2076 20.0081C20.1302 19.9722 20.0616 19.9198 20.0065 19.8547C19.8958 19.6629 19.8452 19.4423 19.8611 19.2214V15.888Z" fill="#323232"/>
</g>
<defs>
<clipPath id="clip0_691_197">
<rect width="32" height="32" fill="white"/>
</clipPath>
</defs>
</svg>
