<svg width="32" height="32" viewBox="0 0 32 32" fill="none" xmlns="http://www.w3.org/2000/svg">
<g clip-path="url(#clip0_691_184)">
<path d="M24.5518 8.55469L20.7812 4.78267C20.281 4.28303 19.6028 4.00248 18.8958 4.00269H9.33317C8.62593 4.00269 7.94769 4.28364 7.44759 4.78373C6.94749 5.28383 6.6665 5.96211 6.6665 6.66935V25.336C6.6665 26.0433 6.94749 26.7215 7.44759 27.2216C7.94769 27.7217 8.62593 28.0027 9.33317 28.0027H22.6665C23.3737 28.0027 24.0521 27.7217 24.5522 27.2216C25.0523 26.7215 25.3332 26.0433 25.3332 25.336V10.4373C25.3323 9.73108 25.0513 9.05401 24.5518 8.55469Z" fill="white" stroke="#323232" stroke-width="1.5" stroke-linecap="round" stroke-linejoin="round"/>
<path d="M25.3332 10.6667H19.9998C19.6462 10.6667 19.3071 10.5262 19.057 10.2762C18.807 10.0261 18.6665 9.68695 18.6665 9.33333V4" fill="white"/>
<path d="M25.3332 10.6667H19.9998C19.6462 10.6667 19.3071 10.5262 19.057 10.2762C18.807 10.0261 18.6665 9.68695 18.6665 9.33333V4" stroke="#323232" stroke-width="1.5" stroke-linecap="round" stroke-linejoin="round"/>
<path d="M11.2425 19.6747C11.1537 19.8079 11.0448 19.9266 10.9198 20.0267C10.8338 20.0921 10.7292 20.1285 10.6212 20.1307C10.5513 20.13 10.4823 20.1154 10.4182 20.0877C10.3541 20.06 10.2962 20.0198 10.2479 19.9694C10.1973 19.9243 10.1565 19.8693 10.1281 19.8078C10.0997 19.7464 10.0841 19.6797 10.0825 19.612C10.084 19.5272 10.1017 19.4435 10.1345 19.3654C10.1949 19.2403 10.2668 19.1211 10.3492 19.0094L11.6159 17.244L10.6639 15.9107C10.5816 15.8036 10.5106 15.6883 10.4519 15.5667C10.4175 15.4904 10.3993 15.4077 10.3985 15.324C10.397 15.2521 10.411 15.1807 10.4395 15.1147C10.4681 15.0486 10.5105 14.9896 10.5639 14.9414C10.6764 14.8373 10.8253 14.7817 10.9785 14.7867C11.086 14.7892 11.1895 14.8272 11.2732 14.8947C11.3955 14.9928 11.5013 15.1098 11.5865 15.2413L12.3212 16.2693L13.0706 15.228C13.1577 15.0989 13.2658 14.9853 13.3905 14.892C13.479 14.8225 13.5874 14.7833 13.6999 14.78C13.7674 14.7814 13.834 14.7964 13.8957 14.8241C13.9573 14.8519 14.0126 14.8917 14.0585 14.9414C14.1077 14.9863 14.1473 15.0408 14.1748 15.1016C14.2023 15.1623 14.2172 15.228 14.2185 15.2947C14.1925 15.5141 14.1031 15.7213 13.9612 15.8907L12.9972 17.224L14.2679 19.0133L14.2999 19.06C14.43 19.2187 14.5122 19.411 14.5372 19.6147C14.5366 19.6823 14.5218 19.7491 14.4938 19.8106C14.4658 19.8722 14.4251 19.9272 14.3745 19.972C14.3248 20.0217 14.2657 20.061 14.2008 20.0878C14.1358 20.1146 14.0661 20.1282 13.9958 20.128C13.881 20.1271 13.7693 20.0908 13.6759 20.024C13.5496 19.9291 13.4401 19.8138 13.3519 19.6827L12.2972 18.204L11.2425 19.6747Z" fill="#323232"/>
<path d="M14.896 15.6293C14.8804 15.4079 14.9316 15.1868 15.0427 14.9946C15.0972 14.9287 15.1654 14.8756 15.2428 14.8392C15.3201 14.8027 15.4045 14.7838 15.49 14.7838C15.5755 14.7838 15.66 14.8027 15.7373 14.8392C15.8147 14.8756 15.8829 14.9287 15.9373 14.9946C16.0496 15.1864 16.1012 15.4077 16.0854 15.6293V18.9626H17.0881C17.3084 18.9464 17.5288 18.9926 17.7241 19.096C17.7921 19.1399 17.8473 19.201 17.884 19.2731C17.9208 19.3452 17.9378 19.4258 17.9334 19.5066C17.9383 19.5885 17.9216 19.6702 17.8849 19.7434C17.8481 19.8167 17.7926 19.879 17.7241 19.924C17.5286 20.0267 17.3083 20.0728 17.0881 20.0573H15.7013C15.4783 20.0812 15.254 20.0255 15.068 19.9C15.0013 19.8181 14.9517 19.7235 14.9221 19.6221C14.8926 19.5206 14.8837 19.4142 14.896 19.3093V15.6293Z" fill="#323232"/>
<path d="M21.7067 18.4507C21.7144 18.6906 21.6683 18.9292 21.5719 19.1491C21.4754 19.3689 21.3311 19.5645 21.1493 19.7213C20.7369 20.0581 20.2146 20.2305 19.6827 20.2053C19.2716 20.2168 18.8636 20.1309 18.492 19.9547C18.1614 19.7867 17.996 19.592 17.996 19.368C17.9931 19.2958 18.0059 19.2239 18.0335 19.1571C18.0612 19.0903 18.1029 19.0304 18.156 18.9813C18.2746 18.8795 18.4279 18.8269 18.5841 18.8347C18.7735 18.8575 18.9596 18.9022 19.1387 18.968C19.3685 19.0477 19.609 19.0926 19.8521 19.1013C20.006 19.106 20.1557 19.0506 20.2694 18.9467C20.3229 18.8968 20.3655 18.8364 20.3947 18.7693C20.4239 18.7022 20.4389 18.6298 20.4389 18.5567C20.4389 18.4835 20.4239 18.4111 20.3947 18.344C20.3655 18.2769 20.3229 18.2166 20.2694 18.1667C20.045 18.0145 19.7946 17.9047 19.5307 17.8427C19.1073 17.7462 18.7137 17.548 18.384 17.2653C18.2725 17.1443 18.1863 17.0023 18.1305 16.8475C18.0746 16.6927 18.0502 16.5283 18.0587 16.364C18.0522 16.1393 18.096 15.9161 18.1869 15.7105C18.2778 15.505 18.4135 15.3224 18.5841 15.176C18.9655 14.8569 19.4526 14.6923 19.9494 14.7147C20.3029 14.7006 20.6543 14.7763 20.9707 14.9347C21.0823 14.9793 21.1791 15.0545 21.2498 15.1517C21.3206 15.2489 21.3625 15.3641 21.3707 15.484C21.3743 15.5523 21.3635 15.6207 21.3389 15.6846C21.3143 15.7484 21.2765 15.8064 21.228 15.8547C21.1198 15.9487 20.9791 15.9965 20.836 15.988C20.6813 15.9756 20.5287 15.9447 20.3814 15.896C20.2271 15.8459 20.0672 15.8154 19.9054 15.8053C19.7546 15.7972 19.6056 15.8404 19.4827 15.928C19.4329 15.9659 19.3928 16.015 19.3655 16.0713C19.3382 16.1275 19.3244 16.1894 19.3254 16.252C19.3254 16.464 19.556 16.644 20.02 16.7853L20.2694 16.864C20.6817 16.9789 21.0579 17.1969 21.3627 17.4973C21.5958 17.759 21.719 18.1005 21.7067 18.4507Z" fill="#323232"/>
</g>
<defs>
<clipPath id="clip0_691_184">
<rect width="32" height="32" fill="white"/>
</clipPath>
</defs>
</svg>
